<svg width="12" height="34" viewBox="0 0 12 34" fill="none" xmlns="http://www.w3.org/2000/svg">
<path d="M6.19043 0.560001C9.19466 0.560234 11.6299 2.99615 11.6299 6.00043V22.4496L7.15039 25.6596V33.4799H5.23047V25.6596L0.75 22.4496V6.00043C0.75 2.996 3.186 0.560001 6.19043 0.560001ZM7.15039 20.4399V23.31L9.70996 21.4702V17.8803L7.15039 20.4399ZM2.66992 21.4799L5.23047 23.3002V20.4399L2.66992 17.8803V21.4799ZM2.70996 15.1996L5.26953 17.7602V15.3598L2.70996 12.8002V15.1996ZM7.15039 15.3598V17.7602L9.70996 15.1996V12.8002L7.15039 15.3598ZM6.19043 11.1196L2.66992 7.60004V10.0004L6.19043 13.6L9.70996 10.0795V7.60004L6.19043 11.1196ZM6.19043 2.43988C4.58792 2.4518 3.1929 3.53918 2.79004 5.09027L6.19043 8.47992L9.58984 5.09027C9.17189 3.55518 7.78135 2.48715 6.19043 2.47992V2.43988Z" fill="#FFAC12"/>
</svg>
